PathFileType	4	(X/Y/Z)	T1_P1_NoVision_NoMovement_4_0-615.trc
DataRate	CameraRate	NumFrames	NumMarkers	Units	OrigDataRate	OrigDataStartFrame	OrigNumFrames
60	60	4	27	m	60	538	615
Frame#	Time	RHip			RKnee			RAnkle			RBigToe			RSmallToe			RHeel			LHip			LKnee			LAnkle			LBigToe			LSmallToe			LHeel			Neck			Head			Nose			RShoulder			RElbow			RWrist			RThumb			RIndex			RPinky			LShoulder			LElbow			LWrist			LThumb			LIndex			LPinky		
		X1	Y1	Z1	X2	Y2	Z2	X3	Y3	Z3	X4	Y4	Z4	X5	Y5	Z5	X6	Y6	Z6	X7	Y7	Z7	X8	Y8	Z8	X9	Y9	Z9	X10	Y10	Z10	X11	Y11	Z11	X12	Y12	Z12	X13	Y13	Z13	X14	Y14	Z14	X15	Y15	Z15	X16	Y16	Z16	X17	Y17	Z17	X18	Y18	Z18	X19	Y19	Z19	X20	Y20	Z20	X21	Y21	Z21	X22	Y22	Z22	X23	Y23	Z23	X24	Y24	Z24	X25	Y25	Z25	X26	Y26	Z26	X27	Y27	Z27
539	8.983333333333333	-66.52234122905291	3789.597946050899	-546.2990993767247	285.19995887579756	3877.518805370769	-548.0715124867801	647.4699805754474	4182.188651438158	-596.1909337794398	699.429641537136	3977.135228050164	-496.2105506112194	718.6065320303834	4034.217081007341	-597.5058504541068	685.8467600755706	4203.299002057744	-570.7751934045336	-108.2607857953235	3900.5152094280597	-355.96904688039615	237.95390153681413	4007.8030042222044	-360.23742987591544	586.6608313385636	4198.052332454163	-385.2033631330814	680.1152775845178	4139.934152554842	-332.639650718938	638.7666614080468	4146.320790790081	-300.30909082464444	623.534580907045	4241.655270297771	-413.8634671839253	-661.1887735964802	3674.3420366925725	-484.32856957233014	-901.4266824326251	3518.2626885126624	-426.28285953658144	-743.3002019084075	3540.2192035995804	-399.0424994223753	-558.1758086897509	3647.6329329930827	-640.6411115578485	-282.6470639279108	3745.4951201347158	-699.5293402676596	-32.707731207543745	3703.2506725256862	-607.6781597189312	76.81082137282462	3794.788836948399	-575.4863380524401	96.17968634389105	3797.9148230289684	-576.2836284607545	87.41388485115704	3773.982226851015	-589.0102950416634	-606.4418199929867	3764.7908878083545	-348.7017109920032	-386.23171185760253	3983.130774215292	-345.23474513762136	-120.51825378454453	3935.7113008623123	-299.02156213535636	17.082309807104565	3934.685289132581	-328.32063147251546	34.8548751193699	3933.1822843422733	-291.13032259358954	9.177982601421432	3977.9763652214265	-239.23521752605464
540	9.0	-66.54421203645404	3789.4263852596396	-546.1973750991966	284.1021334177289	3873.1544271401	-545.1252447728109	649.0548982813441	4182.0816717543	-595.2383243634217	700.3519397021961	3970.032399728477	-496.1869685283095	720.1316436251827	4034.0475370103895	-597.3614733250714	686.2282227503936	4202.062803740522	-568.4625006689525	-108.03602843120407	3900.593395060683	-356.42926768884297	238.72089869527218	4000.323540551772	-358.68213096233075	587.0954221392589	4200.029662410551	-386.4495857218172	679.612411557887	4135.923114908337	-329.8488437587546	637.7167278351908	4142.461296680532	-296.4449394849923	623.5479742052867	4241.434162441224	-413.7452230812352	-659.9360688276166	3674.718781462786	-484.3810704024699	-901.4508719337026	3518.368519137238	-426.2174499803938	-743.4130939212871	3539.608820169957	-398.67261411204134	-558.0221122943369	3646.5652393887976	-639.6766208888771	-282.68252891341353	3746.1628324831663	-700.0571778824199	-32.709292609018405	3703.3845115772547	-607.6779853651691	77.02389314124825	3795.026206786789	-575.5759343876127	95.9041668172565	3797.921924293434	-576.2641274131431	87.50613348795518	3776.4549425561986	-589.5607174500248	-606.4641928341285	3764.8529761366613	-348.72737536559373	-386.2842927234461	3983.1805799370204	-345.3119979794161	-120.50889932129874	3932.8522653161212	-298.4664124125364	15.725676542586381	3933.7135953299367	-327.9420030506795	33.78915853492518	3937.06811332536	-294.0866107338042	8.646156983091192	3983.297986760046	-244.37790399659087
541	9.016666666666667	-66.55867141676691	3789.2247121003033	-546.0871507605809	283.87278569271734	3869.077673711626	-542.0792963482121	650.0507910156233	4176.320844282522	-590.6147550975803	701.7298672534067	3961.2697753251546	-495.91440964940307	722.3291828141419	4033.906098816721	-597.2263427339494	685.9994191143448	4195.19898272983	-561.8664312046665	-107.85012419371311	3900.7848032886113	-357.44757500977283	238.04634343319682	3990.5762240122954	-356.9744329470424	588.0770529855803	4198.37216043738	-385.15285223602496	679.2612096669287	4133.687820861043	-328.36160289769856	637.0115114717686	4143.052590285183	-294.71795055446256	623.5970345459216	4241.2424244161275	-413.55335111989734	-658.3088129336821	3675.166446677227	-484.4308588873911	-901.4850337458882	3518.5392365771713	-426.40807240843355	-744.0529918660613	3538.6559908725885	-398.20059384861776	-558.0969544520962	3647.899116200828	-640.7596969607723	-282.73705270537465	3748.0791374246955	-701.5935810958971	-32.85899486807445	3703.538764815302	-607.696420379065	76.88178772703415	3795.0720835078173	-575.5880166798509	95.0264387449331	3797.915632644138	-576.3120426891588	86.51415869037625	3780.9660059868283	-590.6948547557507	-606.4479645659172	3764.907985807796	-348.75120249661677	-386.37304872251894	3983.331885750612	-345.4327356920543	-120.59527160058171	3932.0929290834856	-298.3201760416455	13.706976775783577	3932.333480976141	-327.3795034270501	32.21327098723921	3940.2056659323353	-296.58954816187986	7.986401286631572	3989.734286167066	-249.30857052488625
542	9.033333333333331	-66.56933756350895	3788.999578722948	-545.9982849688483	284.5040589021583	3866.0278988734626	-539.5117348658432	649.6193283655554	4169.558091905618	-585.9453490393383	703.6093310913965	3955.529162030475	-495.29671261672434	723.9073876373378	4033.7693160904987	-597.1122219688841	685.2367593831958	4188.691117942751	-556.3531457303817	-108.21788916765654	3900.8404846816225	-358.6919666752734	236.85856926501663	3985.5867649221636	-356.25564263692024	588.5151894173595	4193.340857029794	-381.6765347403954	679.1073472743517	4133.000583471117	-327.9757918187008	637.642948148206	4146.865224925483	-294.71511430084587	623.6370537694376	4240.896260708287	-413.2737291126504	-657.0990926442164	3675.4854456162307	-484.45874321633664	-901.5114310683396	3518.691394313114	-426.5799272923017	-744.411354218405	3538.085376688124	-397.92640699217327	-558.3306292644761	3650.53458311269	-642.9766773651737	-282.7878803059727	3750.7479722292655	-703.755996293998	-33.51006796249859	3703.278118287379	-607.5664161734885	76.20977557619543	3794.7384140953945	-575.4346623440492	94.11464966979385	3797.9240602115433	-576.4099708615614	85.38178600676461	3785.3820509842126	-591.8666736221064	-606.3695718383512	3764.969985547582	-348.7614454040881	-386.45767911850584	3983.4294153740984	-345.35310813996443	-120.67375411864239	3932.233258141844	-298.3611346201642	12.151603710022007	3931.2815832652523	-326.94111967546286	30.69493019026058	3938.904020832703	-295.98616511271354	7.302005983299446	3994.126964202802	-251.94607011292734
